<?xml version="1.0" encoding="utf-8"?>
<!-- Generator: Adobe Illustrator 24.1.0, SVG Export Plug-In . SVG Version: 6.00 Build 0)  -->
<svg version="1.1" id="Capa_1" xmlns="http://www.w3.org/2000/svg" xmlns:xlink="http://www.w3.org/1999/xlink" x="0px" y="0px"
	 viewBox="0 0 841.89 595.28" style="enable-background:new 0 0 841.89 595.28;" xml:space="preserve">
<style type="text/css">
	.st0{fill:#000;}
</style>
<g id="XMLID_1_">
	<g id="XMLID_96_">
		<path id="XMLID_112_" class="st0" d="M126.48,326.22v-49.59c0-7.93-1.22-13.41-3.65-16.44c-2.43-3.04-6.61-4.55-12.53-4.55
			c-7.58,0-13.46,2.14-17.65,6.43c-4.19,4.29-6.28,10.37-6.28,18.25v45.9H72.83v-80.59h12.94v11.74c3.11-4.66,6.8-8.13,11.06-10.38
			c4.26-2.26,9.2-3.39,14.82-3.39c6.07,0,11.19,0.92,15.35,2.75c4.16,1.83,7.37,4.58,9.63,8.24c1.25,1.96,2.16,4.25,2.71,6.89
			c0.55,2.63,0.83,6.81,0.83,12.53v3.84v48.39H126.48z"/>
		<path id="XMLID_109_" class="st0" d="M214.75,300.18h13.39c-1.46,8.88-5.32,15.88-11.59,20.99c-6.27,5.12-14.18,7.68-23.71,7.68
			c-11.19,0-20.02-3.76-26.49-11.29c-6.47-7.52-9.71-17.78-9.71-30.78c0-13.74,3.21-24.48,9.63-32.21
			c6.42-7.72,15.28-11.59,26.56-11.59c11.59,0,20.55,3.56,26.9,10.69c6.34,7.12,9.52,17.18,9.52,30.18c0,1.66-0.01,2.89-0.04,3.69
			c-0.03,0.8-0.09,1.58-0.19,2.33h-58.17c0.15,8.48,2.26,15.04,6.32,19.68c4.06,4.64,9.7,6.96,16.93,6.96
			c5.52,0,10.07-1.42,13.65-4.25C211.38,309.43,213.69,305.4,214.75,300.18z M170.8,278.59h44.25c-0.05-7.52-1.96-13.33-5.72-17.42
			c-3.76-4.09-9.1-6.13-16.03-6.13c-6.67,0-11.93,2.01-15.76,6.02C173.7,265.07,171.45,270.91,170.8,278.59z"/>
		<path id="XMLID_106_" class="st0" d="M240.63,285.81c0-13.49,3.38-24.01,10.12-31.53c6.75-7.52,16.22-11.29,28.41-11.29
			c12.24,0,21.74,3.75,28.52,11.25c6.77,7.5,10.16,18.02,10.16,31.57c0,13.54-3.37,24.08-10.12,31.6
			c-6.75,7.52-16.22,11.29-28.41,11.29c-12.24,0-21.75-3.75-28.52-11.25C244.02,309.95,240.63,299.41,240.63,285.81z M254.48,285.81
			c0,9.98,2.14,17.62,6.43,22.91c4.29,5.29,10.42,7.94,18.4,7.94c7.93,0,14-2.65,18.21-7.94c4.21-5.29,6.32-12.93,6.32-22.91
			c0-9.93-2.11-17.55-6.32-22.84c-4.22-5.29-10.29-7.94-18.21-7.94c-8.03,0-14.17,2.63-18.44,7.9
			C256.61,268.2,254.48,275.83,254.48,285.81z"/>
		<path id="XMLID_104_" class="st0" d="M387.37,294.31h32.51c-0.7,10.79-5,19.29-12.9,25.51c-7.9,6.22-18.4,9.33-31.49,9.33
			c-14.5,0-25.96-3.94-34.39-11.81c-8.43-7.87-12.64-18.59-12.64-32.13s4.16-24.22,12.49-32.02c8.32-7.8,19.74-11.7,34.24-11.7
			c13.14,0,23.73,3.07,31.76,9.22c8.02,6.15,12.24,14.41,12.64,24.8h-32.51c-0.35-3.86-1.51-6.72-3.46-8.58
			c-1.96-1.86-4.82-2.78-8.58-2.78c-4.71,0-8.18,1.69-10.38,5.08c-2.21,3.39-3.31,8.72-3.31,15.99c0,7.37,1.06,12.77,3.2,16.18
			c2.13,3.41,5.53,5.12,10.2,5.12c3.76,0,6.71-1.03,8.84-3.08C385.7,301.36,386.97,298.33,387.37,294.31z"/>
		<path id="XMLID_102_" class="st0" d="M433.27,326.22V215.37h32.51v37.78c3.31-3.66,7.06-6.4,11.25-8.2
			c4.19-1.81,8.82-2.71,13.88-2.71c5.22,0,9.81,0.82,13.77,2.45c3.96,1.63,7.33,4.1,10.09,7.41c2.46,2.96,4.2,6.62,5.23,10.99
			c1.03,4.36,1.54,11.24,1.54,20.62v42.52h-32.51v-42.37c0-6.22-0.83-10.5-2.49-12.83c-1.65-2.33-4.51-3.5-8.58-3.5
			c-4.12,0-7.18,1.36-9.18,4.06c-2.01,2.71-3.01,6.85-3.01,12.42v42.22H433.27z"/>
		<path id="XMLID_99_" class="st0" d="M594,301.99h31.16c-2.26,8.93-7.21,15.69-14.86,20.28c-7.65,4.59-17.75,6.89-30.29,6.89
			c-14.05,0-25.2-3.9-33.45-11.7c-8.25-7.8-12.38-18.3-12.38-31.49c0-13.75,4.21-24.59,12.64-32.55
			c8.43-7.95,19.89-11.93,34.39-11.93c14.55,0,25.95,4.33,34.2,12.98c8.25,8.65,12.38,20.66,12.38,36.01v1.96l-61.03,0.07
			c0.15,5.22,1.53,9.24,4.14,12.08c2.61,2.83,6.25,4.25,10.91,4.25c3.16,0,5.8-0.59,7.9-1.77C591.82,305.89,593.25,304.2,594,301.99
			z M566.76,276.1h28.97c-0.35-5.07-1.76-8.87-4.22-11.4c-2.46-2.53-5.99-3.8-10.61-3.8c-4.27,0-7.64,1.34-10.12,4.03
			C568.31,267.61,566.97,271.34,566.76,276.1z"/>
		<path id="XMLID_97_" class="st0" d="M641.19,326.22v-81.8h29.57v11.96c3.61-4.82,7.67-8.38,12.19-10.69
			c4.51-2.31,9.7-3.46,15.57-3.46c5.37,0,10,1.13,13.89,3.39c3.89,2.26,7.36,5.84,10.42,10.76c3.96-4.92,8.3-8.53,13.02-10.84
			c4.71-2.31,10.03-3.46,15.95-3.46c9.63,0,17.11,2.48,22.43,7.45c5.31,4.97,7.98,11.94,7.98,20.92v55.76h-32.06v-43.8
			c0-5.12-0.87-8.83-2.6-11.14c-1.73-2.31-4.53-3.46-8.39-3.46c-3.96,0-6.87,1.21-8.73,3.61c-1.86,2.41-2.79,6.17-2.79,11.29v43.5
			h-31.9v-42.67c0-5.62-0.89-9.64-2.67-12.08c-1.78-2.43-4.7-3.65-8.77-3.65c-3.61,0-6.36,1.23-8.24,3.69
			c-1.88,2.46-2.82,6.05-2.82,10.76v43.95H641.19z"/>
	</g>
	<g id="XMLID_44_">
		<path id="XMLID_94_" class="st0" d="M349.4,353.8c-0.12-1.64-0.71-2.91-1.78-3.8c-1.07-0.89-2.53-1.33-4.38-1.33
			c-2.19,0-3.87,0.78-5.06,2.35c-1.19,1.57-1.78,3.81-1.78,6.73c0,2.93,0.57,5.19,1.72,6.77c1.14,1.59,2.76,2.38,4.85,2.38
			c1.89,0,3.39-0.48,4.52-1.46c1.13-0.97,1.83-2.38,2.09-4.24h3.86c-0.21,2.95-1.25,5.24-3.12,6.9c-1.87,1.65-4.38,2.48-7.53,2.48
			c-3.29,0-5.87-1.13-7.75-3.39c-1.87-2.26-2.81-5.35-2.81-9.29c0-4.02,0.98-7.17,2.94-9.45c1.96-2.28,4.65-3.42,8.07-3.42
			c3.02,0,5.44,0.79,7.25,2.37c1.82,1.58,2.79,3.71,2.9,6.4H349.4z"/>
		<path id="XMLID_91_" class="st0" d="M356.33,357.79c0-4.02,1-7.15,3.01-9.4s4.84-3.36,8.47-3.36c3.65,0,6.48,1.12,8.5,3.35
			c2.02,2.24,3.03,5.37,3.03,9.41c0,4.04-1,7.18-3.01,9.42c-2.01,2.24-4.84,3.36-8.47,3.36c-3.65,0-6.48-1.12-8.5-3.35
			S356.33,361.84,356.33,357.79z M360.45,357.79c0,2.98,0.64,5.25,1.92,6.83c1.28,1.58,3.11,2.37,5.48,2.37
			c2.36,0,4.17-0.79,5.43-2.37c1.26-1.58,1.89-3.85,1.89-6.83c0-2.96-0.63-5.23-1.89-6.81c-1.25-1.58-3.06-2.37-5.43-2.37
			c-2.39,0-4.22,0.79-5.49,2.35C361.09,352.54,360.45,354.82,360.45,357.79z"/>
		<path id="XMLID_89_" class="st0" d="M384.3,369.84V336.8h4.11v33.04H384.3z"/>
		<path id="XMLID_86_" class="st0" d="M393.4,357.79c0-4.02,1-7.15,3.01-9.4s4.84-3.36,8.47-3.36c3.65,0,6.48,1.12,8.5,3.35
			c2.02,2.24,3.03,5.37,3.03,9.41c0,4.04-1,7.18-3.01,9.42c-2.01,2.24-4.84,3.36-8.47,3.36c-3.65,0-6.48-1.12-8.5-3.35
			C394.41,364.99,393.4,361.84,393.4,357.79z M397.53,357.79c0,2.98,0.64,5.25,1.92,6.83c1.28,1.58,3.11,2.37,5.48,2.37
			c2.36,0,4.17-0.79,5.43-2.37c1.26-1.58,1.89-3.85,1.89-6.83c0-2.96-0.63-5.23-1.89-6.81c-1.25-1.58-3.06-2.37-5.43-2.37
			c-2.39,0-4.22,0.79-5.49,2.35C398.17,352.54,397.53,354.82,397.53,357.79z"/>
		<path id="XMLID_84_" class="st0" d="M421.32,369.84v-24.02h3.9v4.31c0.64-1.62,1.51-2.82,2.61-3.62s2.45-1.2,4.05-1.2
			c0.3,0,0.52,0,0.65,0.01c0.14,0.01,0.27,0.03,0.4,0.06v4.26c-0.1-0.02-0.22-0.02-0.36-0.03c-0.13-0.01-0.33-0.01-0.6-0.01
			c-2.16,0-3.79,0.59-4.92,1.76s-1.7,2.88-1.7,5.12v13.37H421.32z"/>
		<path id="XMLID_81_" class="st0" d="M451.42,366.63c-1.25,1.32-2.59,2.3-4,2.96c-1.41,0.66-2.91,0.99-4.5,0.99
			c-2.45,0-4.37-0.64-5.74-1.92c-1.38-1.28-2.06-3.04-2.06-5.3c0-2.18,0.68-3.89,2.03-5.14c1.35-1.24,3.41-2.04,6.18-2.4
			c0.7-0.07,1.65-0.18,2.85-0.31c2.05-0.21,3.3-0.41,3.77-0.61c0.46-0.18,0.77-0.41,0.92-0.71c0.15-0.29,0.22-0.92,0.22-1.9
			c0-1.23-0.45-2.14-1.35-2.76c-0.9-0.61-2.25-0.92-4.06-0.92c-1.87,0-3.28,0.37-4.23,1.12c-0.95,0.75-1.43,1.86-1.43,3.32h-3.81
			v-0.18c0-2.42,0.85-4.34,2.55-5.74c1.71-1.4,4.05-2.11,7.04-2.11c3.22,0,5.58,0.6,7.1,1.81c1.52,1.2,2.28,3.08,2.28,5.64v12.02
			c0,1.03,0.11,1.7,0.34,2c0.22,0.3,0.63,0.45,1.21,0.45c0.12,0,0.27-0.01,0.44-0.03c0.17-0.02,0.38-0.06,0.62-0.1v3.12
			c-0.49,0.14-0.92,0.23-1.29,0.28c-0.36,0.05-0.71,0.08-1.04,0.08c-1.35,0-2.35-0.29-3.03-0.87c-0.67-0.58-1.01-1.47-1.01-2.65
			V366.63z M451.04,357.61c-1.08,0.58-2.92,1.04-5.54,1.37c-0.92,0.12-1.62,0.22-2.08,0.29c-1.47,0.24-2.52,0.67-3.16,1.3
			c-0.64,0.63-0.97,1.54-0.97,2.74c0,1.2,0.37,2.12,1.12,2.76c0.75,0.64,1.82,0.96,3.21,0.96c2.17,0,3.95-0.55,5.34-1.64
			c1.39-1.09,2.09-2.49,2.09-4.19V357.61z"/>
		<path id="XMLID_79_" class="st0" d="M477.51,369.84v-14.78c0-2.36-0.36-4-1.09-4.9c-0.73-0.9-1.97-1.36-3.74-1.36
			c-2.25,0-4.01,0.64-5.26,1.92c-1.25,1.28-1.87,3.09-1.87,5.44v13.68h-4.04v-24.02h3.86v3.5c0.93-1.39,2.03-2.42,3.3-3.09
			c1.27-0.67,2.74-1.01,4.42-1.01c1.81,0,3.33,0.27,4.57,0.82c1.24,0.55,2.2,1.36,2.87,2.46c0.37,0.58,0.64,1.27,0.81,2.05
			c0.16,0.79,0.25,2.03,0.25,3.73v1.14v14.42H477.51z"/>
		<path id="XMLID_77_" class="st0" d="M492.37,363.78c0,1.08,0.15,1.79,0.46,2.15c0.31,0.36,0.87,0.54,1.7,0.54
			c0.24,0,0.52-0.01,0.86-0.02c0.33-0.02,0.77-0.04,1.31-0.09v3.43c-0.67,0.12-1.27,0.21-1.81,0.27c-0.53,0.06-1.01,0.09-1.43,0.09
			c-1.9,0-3.23-0.36-3.99-1.1c-0.76-0.73-1.14-2.03-1.14-3.9v-16.13h-3.59v-3.21h3.59v-6.71h4.04v6.71h4.33v3.21h-4.33V363.78z"/>
		<path id="XMLID_74_" class="st0" d="M516.71,362.07h3.99c-0.43,2.65-1.59,4.73-3.45,6.26c-1.87,1.53-4.22,2.29-7.07,2.29
			c-3.33,0-5.96-1.12-7.9-3.36c-1.93-2.24-2.89-5.3-2.89-9.17c0-4.1,0.96-7.3,2.87-9.6c1.91-2.3,4.55-3.45,7.91-3.45
			c3.46,0,6.13,1.06,8.02,3.19c1.89,2.12,2.84,5.12,2.84,8.99c0,0.49,0,0.86-0.01,1.1c-0.01,0.24-0.03,0.47-0.06,0.7h-17.34
			c0.05,2.53,0.68,4.48,1.89,5.86c1.21,1.38,2.89,2.08,5.05,2.08c1.64,0,3-0.42,4.07-1.27C515.71,364.83,516.4,363.63,516.71,362.07
			z M503.62,355.64h13.19c-0.02-2.24-0.59-3.97-1.71-5.19s-2.71-1.83-4.77-1.83c-1.99,0-3.55,0.6-4.7,1.79
			C504.48,351.61,503.81,353.35,503.62,355.64z"/>
		<path id="XMLID_72_" class="st0" d="M524.02,362.03h3.88c0.15,1.63,0.74,2.86,1.76,3.7c1.03,0.84,2.48,1.25,4.36,1.25
			c1.73,0,3.1-0.34,4.11-1.02c1-0.68,1.5-1.61,1.5-2.79c0-0.88-0.25-1.56-0.75-2.03c-0.5-0.47-1.47-0.88-2.93-1.22l-4.51-1.17
			c-2.54-0.61-4.31-1.42-5.3-2.43c-0.99-1.01-1.49-2.45-1.49-4.32c0-2.12,0.8-3.81,2.41-5.06c1.61-1.25,3.81-1.87,6.61-1.87
			c2.85,0,5.13,0.67,6.82,2c1.69,1.33,2.54,3.12,2.54,5.36v0.09h-3.93c-0.09-1.27-0.61-2.25-1.56-2.95
			c-0.95-0.7-2.24-1.04-3.87-1.04c-1.63,0-2.87,0.29-3.71,0.85c-0.84,0.57-1.27,1.4-1.27,2.49c0,0.78,0.27,1.39,0.79,1.83
			c0.53,0.44,1.52,0.83,2.97,1.16l3.9,0.92c2.78,0.66,4.69,1.5,5.74,2.52c1.05,1.02,1.57,2.49,1.57,4.38c0,2.5-0.88,4.44-2.63,5.82
			c-1.76,1.38-4.22,2.07-7.37,2.07c-3.08,0-5.45-0.73-7.1-2.2C524.92,366.91,524.07,364.8,524.02,362.03z"/>
		<path id="XMLID_70_" class="st0" d="M576.23,345.81h4.51l-10.11,27.74c-0.96,2.62-1.92,4.33-2.9,5.14
			c-0.97,0.81-2.38,1.21-4.22,1.21c-0.4,0-0.8-0.03-1.2-0.1c-0.4-0.07-0.8-0.16-1.2-0.28v-3.86c0.4,0.12,0.8,0.21,1.19,0.27
			c0.39,0.06,0.78,0.09,1.16,0.09c0.78,0,1.41-0.16,1.89-0.47c0.48-0.31,0.84-0.82,1.1-1.5l1.05-2.85l-9.1-25.39h4.51l6.66,19.42
			L576.23,345.81z"/>
		<path id="XMLID_67_" class="st0" d="M611.74,366.63c-1.25,1.32-2.59,2.3-4,2.96c-1.41,0.66-2.91,0.99-4.5,0.99
			c-2.45,0-4.37-0.64-5.74-1.92c-1.38-1.28-2.06-3.04-2.06-5.3c0-2.18,0.68-3.89,2.03-5.14c1.35-1.24,3.41-2.04,6.18-2.4
			c0.7-0.07,1.65-0.18,2.85-0.31c2.05-0.21,3.3-0.41,3.77-0.61c0.46-0.18,0.77-0.41,0.92-0.71c0.15-0.29,0.22-0.92,0.22-1.9
			c0-1.23-0.45-2.14-1.35-2.76c-0.9-0.61-2.25-0.92-4.06-0.92c-1.87,0-3.28,0.37-4.23,1.12c-0.95,0.75-1.43,1.86-1.43,3.32h-3.81
			v-0.18c0-2.42,0.85-4.34,2.55-5.74c1.71-1.4,4.05-2.11,7.04-2.11c3.22,0,5.58,0.6,7.1,1.81c1.52,1.2,2.28,3.08,2.28,5.64v12.02
			c0,1.03,0.11,1.7,0.34,2s0.63,0.45,1.21,0.45c0.12,0,0.27-0.01,0.44-0.03c0.17-0.02,0.38-0.06,0.62-0.1v3.12
			c-0.49,0.14-0.92,0.23-1.29,0.28c-0.36,0.05-0.71,0.08-1.04,0.08c-1.35,0-2.35-0.29-3.03-0.87c-0.67-0.58-1.01-1.47-1.01-2.65
			V366.63z M611.36,357.61c-1.08,0.58-2.92,1.04-5.54,1.37c-0.92,0.12-1.62,0.22-2.08,0.29c-1.47,0.24-2.52,0.67-3.16,1.3
			c-0.64,0.63-0.97,1.54-0.97,2.74c0,1.2,0.37,2.12,1.12,2.76c0.75,0.64,1.82,0.96,3.21,0.96c2.17,0,3.95-0.55,5.34-1.64
			c1.39-1.09,2.09-2.49,2.09-4.19V357.61z"/>
		<path id="XMLID_65_" class="st0" d="M625.82,345.81v14.74c0,2.36,0.37,4,1.11,4.92c0.74,0.92,1.99,1.38,3.76,1.38
			c2.33,0,4.09-0.68,5.29-2.05c1.2-1.37,1.79-3.38,1.79-6.04v-12.94h4.04v24.02h-3.86v-3.59c-0.84,1.39-1.92,2.44-3.25,3.14
			c-1.33,0.7-2.89,1.05-4.69,1.05c-1.68,0-3.13-0.29-4.38-0.85c-1.24-0.57-2.19-1.37-2.85-2.42c-0.37-0.58-0.64-1.27-0.81-2.05
			c-0.17-0.79-0.25-2.03-0.25-3.73v-1.14v-14.42H625.82z"/>
		<path id="XMLID_63_" class="st0" d="M644.89,369.84l8.37-12.36l-7.96-11.66h4.73l5.9,8.63l5.79-8.63h4.66l-8.07,11.62l8.59,12.4
			h-4.87l-6.3-9.28l-6.1,9.28H644.89z"/>
		<path id="XMLID_60_" class="st0" d="M669.96,341.4v-4.6H674v4.6H669.96z M669.96,369.84v-24.02H674v24.02H669.96z"/>
		<path id="XMLID_58_" class="st0" d="M680.21,369.84V336.8h4.11v33.04H680.21z"/>
		<path id="XMLID_55_" class="st0" d="M690.55,341.4v-4.6h4.04v4.6H690.55z M690.55,369.84v-24.02h4.04v24.02H690.55z"/>
		<path id="XMLID_52_" class="st0" d="M715.6,366.63c-1.25,1.32-2.59,2.3-4,2.96s-2.91,0.99-4.5,0.99c-2.45,0-4.37-0.64-5.74-1.92
			c-1.38-1.28-2.06-3.04-2.06-5.3c0-2.18,0.68-3.89,2.03-5.14c1.35-1.24,3.41-2.04,6.18-2.4c0.7-0.07,1.65-0.18,2.85-0.31
			c2.05-0.21,3.3-0.41,3.77-0.61c0.46-0.18,0.77-0.41,0.92-0.71c0.15-0.29,0.22-0.92,0.22-1.9c0-1.23-0.45-2.14-1.35-2.76
			c-0.9-0.61-2.25-0.92-4.06-0.92c-1.87,0-3.28,0.37-4.23,1.12c-0.95,0.75-1.43,1.86-1.43,3.32h-3.81v-0.18
			c0-2.42,0.85-4.34,2.55-5.74c1.71-1.4,4.05-2.11,7.04-2.11c3.22,0,5.58,0.6,7.1,1.81c1.52,1.2,2.28,3.08,2.28,5.64v12.02
			c0,1.03,0.11,1.7,0.34,2c0.22,0.3,0.63,0.45,1.21,0.45c0.12,0,0.27-0.01,0.44-0.03c0.17-0.02,0.38-0.06,0.62-0.1v3.12
			c-0.49,0.14-0.92,0.23-1.29,0.28c-0.36,0.05-0.71,0.08-1.04,0.08c-1.35,0-2.35-0.29-3.03-0.87c-0.67-0.58-1.01-1.47-1.01-2.65
			V366.63z M715.22,357.61c-1.08,0.58-2.92,1.04-5.54,1.37c-0.92,0.12-1.62,0.22-2.08,0.29c-1.47,0.24-2.52,0.67-3.16,1.3
			c-0.64,0.63-0.97,1.54-0.97,2.74c0,1.2,0.37,2.12,1.12,2.76c0.75,0.64,1.82,0.96,3.21,0.96c2.17,0,3.95-0.55,5.34-1.64
			c1.39-1.09,2.09-2.49,2.09-4.19V357.61z"/>
		<path id="XMLID_50_" class="st0" d="M725.69,369.84v-24.02h3.9v4.31c0.64-1.62,1.51-2.82,2.61-3.62c1.1-0.8,2.45-1.2,4.05-1.2
			c0.3,0,0.52,0,0.65,0.01c0.14,0.01,0.27,0.03,0.4,0.06v4.26c-0.1-0.02-0.22-0.02-0.36-0.03c-0.13-0.01-0.33-0.01-0.6-0.01
			c-2.16,0-3.79,0.59-4.92,1.76c-1.13,1.17-1.7,2.88-1.7,5.12v13.37H725.69z"/>
		<path id="XMLID_47_" class="st0" d="M757.12,362.07h3.99c-0.43,2.65-1.59,4.73-3.45,6.26c-1.87,1.53-4.22,2.29-7.07,2.29
			c-3.33,0-5.96-1.12-7.9-3.36c-1.93-2.24-2.89-5.3-2.89-9.17c0-4.1,0.96-7.3,2.87-9.6c1.91-2.3,4.55-3.45,7.91-3.45
			c3.46,0,6.13,1.06,8.02,3.19c1.89,2.12,2.84,5.12,2.84,8.99c0,0.49,0,0.86-0.01,1.1c-0.01,0.24-0.03,0.47-0.06,0.7h-17.34
			c0.05,2.53,0.68,4.48,1.89,5.86c1.21,1.38,2.89,2.08,5.05,2.08c1.64,0,3-0.42,4.07-1.27C756.11,364.83,756.8,363.63,757.12,362.07
			z M744.02,355.64h13.19c-0.02-2.24-0.59-3.97-1.71-5.19s-2.71-1.83-4.77-1.83c-1.99,0-3.55,0.6-4.7,1.79
			C744.88,351.61,744.21,353.35,744.02,355.64z"/>
		<path id="XMLID_45_" class="st0" d="M764.43,362.03h3.88c0.15,1.63,0.74,2.86,1.76,3.7c1.03,0.84,2.48,1.25,4.36,1.25
			c1.73,0,3.1-0.34,4.11-1.02c1-0.68,1.5-1.61,1.5-2.79c0-0.88-0.25-1.56-0.75-2.03c-0.5-0.47-1.47-0.88-2.93-1.22l-4.51-1.17
			c-2.54-0.61-4.31-1.42-5.3-2.43c-0.99-1.01-1.49-2.45-1.49-4.32c0-2.12,0.8-3.81,2.41-5.06c1.61-1.25,3.81-1.87,6.61-1.87
			c2.85,0,5.13,0.67,6.82,2c1.69,1.33,2.54,3.12,2.54,5.36v0.09h-3.93c-0.09-1.27-0.61-2.25-1.56-2.95
			c-0.95-0.7-2.24-1.04-3.87-1.04c-1.63,0-2.87,0.29-3.71,0.85c-0.84,0.57-1.27,1.4-1.27,2.49c0,0.78,0.27,1.39,0.79,1.83
			c0.53,0.44,1.52,0.83,2.97,1.16l3.9,0.92c2.78,0.66,4.69,1.5,5.74,2.52c1.05,1.02,1.57,2.49,1.57,4.38c0,2.5-0.88,4.44-2.63,5.82
			c-1.76,1.38-4.22,2.07-7.37,2.07c-3.08,0-5.45-0.73-7.1-2.2C765.32,366.91,764.47,364.8,764.43,362.03z"/>
	</g>
</g>
</svg>
