<svg version="1.1" id="Capa_1" xmlns="http://www.w3.org/2000/svg" x="0" y="0" viewBox="0 0 841.89 595.28" style="enable-background:new 0 0 841.89 595.28" xml:space="preserve"><style>.st0{fill:#000}</style><g id="XMLID_1_"><g id="XMLID_96_"><path id="XMLID_112_" class="st0" d="M126.48 326.22v-49.59c0-7.93-1.22-13.41-3.65-16.44-2.43-3.04-6.61-4.55-12.53-4.55-7.58 0-13.46 2.14-17.65 6.43-4.19 4.29-6.28 10.37-6.28 18.25v45.9H72.83v-80.59h12.94v11.74c3.11-4.66 6.8-8.13 11.06-10.38 4.26-2.26 9.2-3.39 14.82-3.39 6.07 0 11.19.92 15.35 2.75s7.37 4.58 9.63 8.24c1.25 1.96 2.16 4.25 2.71 6.89.55 2.63.83 6.81.83 12.53V326.24h-13.69z"/><path id="XMLID_109_" class="st0" d="M214.75 300.18h13.39c-1.46 8.88-5.32 15.88-11.59 20.99-6.27 5.12-14.18 7.68-23.71 7.68-11.19 0-20.02-3.76-26.49-11.29-6.47-7.52-9.71-17.78-9.71-30.78 0-13.74 3.21-24.48 9.63-32.21 6.42-7.72 15.28-11.59 26.56-11.59 11.59 0 20.55 3.56 26.9 10.69 6.34 7.12 9.52 17.18 9.52 30.18 0 1.66-.01 2.89-.04 3.69-.03.8-.09 1.58-.19 2.33h-58.17c.15 8.48 2.26 15.04 6.32 19.68 4.06 4.64 9.7 6.96 16.93 6.96 5.52 0 10.07-1.42 13.65-4.25 3.63-2.83 5.94-6.86 7-12.08zm-43.95-21.59h44.25c-.05-7.52-1.96-13.33-5.72-17.42-3.76-4.09-9.1-6.13-16.03-6.13-6.67 0-11.93 2.01-15.76 6.02-3.84 4.01-6.09 9.85-6.74 17.53z"/><path id="XMLID_106_" class="st0" d="M240.63 285.81c0-13.49 3.38-24.01 10.12-31.53 6.75-7.52 16.22-11.29 28.41-11.29 12.24 0 21.74 3.75 28.52 11.25 6.77 7.5 10.16 18.02 10.16 31.57 0 13.54-3.37 24.08-10.12 31.6-6.75 7.52-16.22 11.29-28.41 11.29-12.24 0-21.75-3.75-28.52-11.25s-10.16-18.04-10.16-31.64zm13.85 0c0 9.98 2.14 17.62 6.43 22.91 4.29 5.29 10.42 7.94 18.4 7.94 7.93 0 14-2.65 18.21-7.94 4.21-5.29 6.32-12.93 6.32-22.91 0-9.93-2.11-17.55-6.32-22.84-4.22-5.29-10.29-7.94-18.21-7.94-8.03 0-14.17 2.63-18.44 7.9-4.26 5.27-6.39 12.9-6.39 22.88z"/><path id="XMLID_104_" class="st0" d="M387.37 294.31h32.51c-.7 10.79-5 19.29-12.9 25.51-7.9 6.22-18.4 9.33-31.49 9.33-14.5 0-25.96-3.94-34.39-11.81-8.43-7.87-12.64-18.59-12.64-32.13s4.16-24.22 12.49-32.02c8.32-7.8 19.74-11.7 34.24-11.7 13.14 0 23.73 3.07 31.76 9.22 8.02 6.15 12.24 14.41 12.64 24.8h-32.51c-.35-3.86-1.51-6.72-3.46-8.58-1.96-1.86-4.82-2.78-8.58-2.78-4.71 0-8.18 1.69-10.38 5.08-2.21 3.39-3.31 8.72-3.31 15.99 0 7.37 1.06 12.77 3.2 16.18 2.13 3.41 5.53 5.12 10.2 5.12 3.76 0 6.71-1.03 8.84-3.08 2.11-2.08 3.38-5.11 3.78-9.13z"/><path id="XMLID_102_" class="st0" d="M433.27 326.22V215.37h32.51v37.78c3.31-3.66 7.06-6.4 11.25-8.2 4.19-1.81 8.82-2.71 13.88-2.71 5.22 0 9.81.82 13.77 2.45 3.96 1.63 7.33 4.1 10.09 7.41 2.46 2.96 4.2 6.62 5.23 10.99 1.03 4.36 1.54 11.24 1.54 20.62v42.52h-32.51v-42.37c0-6.22-.83-10.5-2.49-12.83-1.65-2.33-4.51-3.5-8.58-3.5-4.12 0-7.18 1.36-9.18 4.06-2.01 2.71-3.01 6.85-3.01 12.42v42.22h-32.5z"/><path id="XMLID_99_" class="st0" d="M594 301.99h31.16c-2.26 8.93-7.21 15.69-14.86 20.28-7.65 4.59-17.75 6.89-30.29 6.89-14.05 0-25.2-3.9-33.45-11.7-8.25-7.8-12.38-18.3-12.38-31.49 0-13.75 4.21-24.59 12.64-32.55 8.43-7.95 19.89-11.93 34.39-11.93 14.55 0 25.95 4.33 34.2 12.98 8.25 8.65 12.38 20.66 12.38 36.01v1.96l-61.03.07c.15 5.22 1.53 9.24 4.14 12.08 2.61 2.83 6.25 4.25 10.91 4.25 3.16 0 5.8-.59 7.9-1.77 2.11-1.18 3.54-2.87 4.29-5.08zm-27.24-25.89h28.97c-.35-5.07-1.76-8.87-4.22-11.4-2.46-2.53-5.99-3.8-10.61-3.8-4.27 0-7.64 1.34-10.12 4.03-2.47 2.68-3.81 6.41-4.02 11.17z"/><path id="XMLID_97_" class="st0" d="M641.19 326.22v-81.8h29.57v11.96c3.61-4.82 7.67-8.38 12.19-10.69 4.51-2.31 9.7-3.46 15.57-3.46 5.37 0 10 1.13 13.89 3.39 3.89 2.26 7.36 5.84 10.42 10.76 3.96-4.92 8.3-8.53 13.02-10.84 4.71-2.31 10.03-3.46 15.95-3.46 9.63 0 17.11 2.48 22.43 7.45 5.31 4.97 7.98 11.94 7.98 20.92v55.76h-32.06v-43.8c0-5.12-.87-8.83-2.6-11.14-1.73-2.31-4.53-3.46-8.39-3.46-3.96 0-6.87 1.21-8.73 3.61-1.86 2.41-2.79 6.17-2.79 11.29v43.5h-31.9v-42.67c0-5.62-.89-9.64-2.67-12.08-1.78-2.43-4.7-3.65-8.77-3.65-3.61 0-6.36 1.23-8.24 3.69s-2.82 6.05-2.82 10.76v43.95h-32.05z"/></g><g id="XMLID_44_"><path id="XMLID_94_" class="st0" d="M349.4 353.8c-.12-1.64-.71-2.91-1.78-3.8-1.07-.89-2.53-1.33-4.38-1.33-2.19 0-3.87.78-5.06 2.35-1.19 1.57-1.78 3.81-1.78 6.73 0 2.93.57 5.19 1.72 6.77 1.14 1.59 2.76 2.38 4.85 2.38 1.89 0 3.39-.48 4.52-1.46 1.13-.97 1.83-2.38 2.09-4.24h3.86c-.21 2.95-1.25 5.24-3.12 6.9-1.87 1.65-4.38 2.48-7.53 2.48-3.29 0-5.87-1.13-7.75-3.39-1.87-2.26-2.81-5.35-2.81-9.29 0-4.02.98-7.17 2.94-9.45 1.96-2.28 4.65-3.42 8.07-3.42 3.02 0 5.44.79 7.25 2.37 1.82 1.58 2.79 3.71 2.9 6.4h-3.99z"/><path id="XMLID_91_" class="st0" d="M356.33 357.79c0-4.02 1-7.15 3.01-9.4s4.84-3.36 8.47-3.36c3.65 0 6.48 1.12 8.5 3.35 2.02 2.24 3.03 5.37 3.03 9.41s-1 7.18-3.01 9.42-4.84 3.36-8.47 3.36c-3.65 0-6.48-1.12-8.5-3.35s-3.03-5.38-3.03-9.43zm4.12 0c0 2.98.64 5.25 1.92 6.83 1.28 1.58 3.11 2.37 5.48 2.37 2.36 0 4.17-.79 5.43-2.37 1.26-1.58 1.89-3.85 1.89-6.83 0-2.96-.63-5.23-1.89-6.81-1.25-1.58-3.06-2.37-5.43-2.37-2.39 0-4.22.79-5.49 2.35-1.27 1.58-1.91 3.86-1.91 6.83z"/><path id="XMLID_89_" class="st0" d="M384.3 369.84V336.8h4.11v33.04h-4.11z"/><path id="XMLID_86_" class="st0" d="M393.4 357.79c0-4.02 1-7.15 3.01-9.4s4.84-3.36 8.47-3.36c3.65 0 6.48 1.12 8.5 3.35 2.02 2.24 3.03 5.37 3.03 9.41s-1 7.18-3.01 9.42-4.84 3.36-8.47 3.36c-3.65 0-6.48-1.12-8.5-3.35-2.02-2.23-3.03-5.38-3.03-9.43zm4.13 0c0 2.98.64 5.25 1.92 6.83 1.28 1.58 3.11 2.37 5.48 2.37 2.36 0 4.17-.79 5.43-2.37 1.26-1.58 1.89-3.85 1.89-6.83 0-2.96-.63-5.23-1.89-6.81-1.25-1.58-3.06-2.37-5.43-2.37-2.39 0-4.22.79-5.49 2.35-1.27 1.58-1.91 3.86-1.91 6.83z"/><path id="XMLID_84_" class="st0" d="M421.32 369.84v-24.02h3.9v4.31c.64-1.62 1.51-2.82 2.61-3.62s2.45-1.2 4.05-1.2c.3 0 .52 0 .65.01.14.01.27.03.4.06v4.26c-.1-.02-.22-.02-.36-.03-.13-.01-.33-.01-.6-.01-2.16 0-3.79.59-4.92 1.76s-1.7 2.88-1.7 5.12v13.37h-4.03z"/><path id="XMLID_81_" class="st0" d="M451.42 366.63c-1.25 1.32-2.59 2.3-4 2.96-1.41.66-2.91.99-4.5.99-2.45 0-4.37-.64-5.74-1.92-1.38-1.28-2.06-3.04-2.06-5.3 0-2.18.68-3.89 2.03-5.14 1.35-1.24 3.41-2.04 6.18-2.4.7-.07 1.65-.18 2.85-.31 2.05-.21 3.3-.41 3.77-.61.46-.18.77-.41.92-.71.15-.29.22-.92.22-1.9 0-1.23-.45-2.14-1.35-2.76-.9-.61-2.25-.92-4.06-.92-1.87 0-3.28.37-4.23 1.12-.95.75-1.43 1.86-1.43 3.32h-3.81v-.18c0-2.42.85-4.34 2.55-5.74 1.71-1.4 4.05-2.11 7.04-2.11 3.22 0 5.58.6 7.1 1.81 1.52 1.2 2.28 3.08 2.28 5.64v12.02c0 1.03.11 1.7.34 2 .22.3.63.45 1.21.45.12 0 .27-.01.44-.03.17-.02.38-.06.62-.1v3.12c-.49.14-.92.23-1.29.28-.36.05-.71.08-1.04.08-1.35 0-2.35-.29-3.03-.87-.67-.58-1.01-1.47-1.01-2.65v-.14zm-.38-9.02c-1.08.58-2.92 1.04-5.54 1.37-.92.12-1.62.22-2.08.29-1.47.24-2.52.67-3.16 1.3-.64.63-.97 1.54-.97 2.74 0 1.2.37 2.12 1.12 2.76.75.64 1.82.96 3.21.96 2.17 0 3.95-.55 5.34-1.64 1.39-1.09 2.09-2.49 2.09-4.19v-3.59z"/><path id="XMLID_79_" class="st0" d="M477.51 369.84v-14.78c0-2.36-.36-4-1.09-4.9-.73-.9-1.97-1.36-3.74-1.36-2.25 0-4.01.64-5.26 1.92-1.25 1.28-1.87 3.09-1.87 5.44v13.68h-4.04v-24.02h3.86v3.5c.93-1.39 2.03-2.42 3.3-3.09 1.27-.67 2.74-1.01 4.42-1.01 1.81 0 3.33.27 4.57.82 1.24.55 2.2 1.36 2.87 2.46.37.58.64 1.27.81 2.05.16.79.25 2.03.25 3.73v15.56h-4.08z"/><path id="XMLID_77_" class="st0" d="M492.37 363.78c0 1.08.15 1.79.46 2.15.31.36.87.54 1.7.54.24 0 .52-.01.86-.02.33-.02.77-.04 1.31-.09v3.43c-.67.12-1.27.21-1.81.27-.53.06-1.01.09-1.43.09-1.9 0-3.23-.36-3.99-1.1-.76-.73-1.14-2.03-1.14-3.9v-16.13h-3.59v-3.21h3.59v-6.71h4.04v6.71h4.33v3.21h-4.33v14.76z"/><path id="XMLID_74_" class="st0" d="M516.71 362.07h3.99c-.43 2.65-1.59 4.73-3.45 6.26-1.87 1.53-4.22 2.29-7.07 2.29-3.33 0-5.96-1.12-7.9-3.36-1.93-2.24-2.89-5.3-2.89-9.17 0-4.1.96-7.3 2.87-9.6 1.91-2.3 4.55-3.45 7.91-3.45 3.46 0 6.13 1.06 8.02 3.19 1.89 2.12 2.84 5.12 2.84 8.99 0 .49 0 .86-.01 1.1-.01.24-.03.47-.06.7h-17.34c.05 2.53.68 4.48 1.89 5.86s2.89 2.08 5.05 2.08c1.64 0 3-.42 4.07-1.27 1.08-.86 1.77-2.06 2.08-3.62zm-13.09-6.43h13.19c-.02-2.24-.59-3.97-1.71-5.19s-2.71-1.83-4.77-1.83c-1.99 0-3.55.6-4.7 1.79-1.15 1.2-1.82 2.94-2.01 5.23z"/><path id="XMLID_72_" class="st0" d="M524.02 362.03h3.88c.15 1.63.74 2.86 1.76 3.7 1.03.84 2.48 1.25 4.36 1.25 1.73 0 3.1-.34 4.11-1.02 1-.68 1.5-1.61 1.5-2.79 0-.88-.25-1.56-.75-2.03-.5-.47-1.47-.88-2.93-1.22l-4.51-1.17c-2.54-.61-4.31-1.42-5.3-2.43-.99-1.01-1.49-2.45-1.49-4.32 0-2.12.8-3.81 2.41-5.06 1.61-1.25 3.81-1.87 6.61-1.87 2.85 0 5.13.67 6.82 2 1.69 1.33 2.54 3.12 2.54 5.36v.09h-3.93c-.09-1.27-.61-2.25-1.56-2.95-.95-.7-2.24-1.04-3.87-1.04s-2.87.29-3.71.85c-.84.57-1.27 1.4-1.27 2.49 0 .78.27 1.39.79 1.83.53.44 1.52.83 2.97 1.16l3.9.92c2.78.66 4.69 1.5 5.74 2.52 1.05 1.02 1.57 2.49 1.57 4.38 0 2.5-.88 4.44-2.63 5.82-1.76 1.38-4.22 2.07-7.37 2.07-3.08 0-5.45-.73-7.1-2.2-1.64-1.46-2.49-3.57-2.54-6.34z"/><path id="XMLID_70_" class="st0" d="M576.23 345.81h4.51l-10.11 27.74c-.96 2.62-1.92 4.33-2.9 5.14-.97.81-2.38 1.21-4.22 1.21-.4 0-.8-.03-1.2-.1-.4-.07-.8-.16-1.2-.28v-3.86c.4.12.8.21 1.19.27.39.06.78.09 1.16.09.78 0 1.41-.16 1.89-.47.48-.31.84-.82 1.1-1.5l1.05-2.85-9.1-25.39h4.51l6.66 19.42 6.66-19.42z"/><path id="XMLID_67_" class="st0" d="M611.74 366.63c-1.25 1.32-2.59 2.3-4 2.96-1.41.66-2.91.99-4.5.99-2.45 0-4.37-.64-5.74-1.92-1.38-1.28-2.06-3.04-2.06-5.3 0-2.18.68-3.89 2.03-5.14 1.35-1.24 3.41-2.04 6.18-2.4.7-.07 1.65-.18 2.85-.31 2.05-.21 3.3-.41 3.77-.61.46-.18.77-.41.92-.71.15-.29.22-.92.22-1.9 0-1.23-.45-2.14-1.35-2.76-.9-.61-2.25-.92-4.06-.92-1.87 0-3.28.37-4.23 1.12-.95.75-1.43 1.86-1.43 3.32h-3.81v-.18c0-2.42.85-4.34 2.55-5.74 1.71-1.4 4.05-2.11 7.04-2.11 3.22 0 5.58.6 7.1 1.81 1.52 1.2 2.28 3.08 2.28 5.64v12.02c0 1.03.11 1.7.34 2s.63.45 1.21.45c.12 0 .27-.01.44-.03.17-.02.38-.06.62-.1v3.12c-.49.14-.92.23-1.29.28-.36.05-.71.08-1.04.08-1.35 0-2.35-.29-3.03-.87-.67-.58-1.01-1.47-1.01-2.65v-.14zm-.38-9.02c-1.08.58-2.92 1.04-5.54 1.37-.92.12-1.62.22-2.08.29-1.47.24-2.52.67-3.16 1.3-.64.63-.97 1.54-.97 2.74 0 1.2.37 2.12 1.12 2.76.75.64 1.82.96 3.21.96 2.17 0 3.95-.55 5.34-1.64 1.39-1.09 2.09-2.49 2.09-4.19v-3.59z"/><path id="XMLID_65_" class="st0" d="M625.82 345.81v14.74c0 2.36.37 4 1.11 4.92.74.92 1.99 1.38 3.76 1.38 2.33 0 4.09-.68 5.29-2.05 1.2-1.37 1.79-3.38 1.79-6.04v-12.94h4.04v24.02h-3.86v-3.59c-.84 1.39-1.92 2.44-3.25 3.14-1.33.7-2.89 1.05-4.69 1.05-1.68 0-3.13-.29-4.38-.85-1.24-.57-2.19-1.37-2.85-2.42-.37-.58-.64-1.27-.81-2.05-.17-.79-.25-2.03-.25-3.73v-15.56h4.1z"/><path id="XMLID_63_" class="st0" d="m644.89 369.84 8.37-12.36-7.96-11.66h4.73l5.9 8.63 5.79-8.63h4.66l-8.07 11.62 8.59 12.4h-4.87l-6.3-9.28-6.1 9.28h-4.74z"/><path id="XMLID_60_" class="st0" d="M669.96 341.4v-4.6H674v4.6h-4.04zm0 28.44v-24.02H674v24.02h-4.04z"/><path id="XMLID_58_" class="st0" d="M680.21 369.84V336.8h4.11v33.04h-4.11z"/><path id="XMLID_55_" class="st0" d="M690.55 341.4v-4.6h4.04v4.6h-4.04zm0 28.44v-24.02h4.04v24.02h-4.04z"/><path id="XMLID_52_" class="st0" d="M715.6 366.63c-1.25 1.32-2.59 2.3-4 2.96s-2.91.99-4.5.99c-2.45 0-4.37-.64-5.74-1.92-1.38-1.28-2.06-3.04-2.06-5.3 0-2.18.68-3.89 2.03-5.14 1.35-1.24 3.41-2.04 6.18-2.4.7-.07 1.65-.18 2.85-.31 2.05-.21 3.3-.41 3.77-.61.46-.18.77-.41.92-.71.15-.29.22-.92.22-1.9 0-1.23-.45-2.14-1.35-2.76-.9-.61-2.25-.92-4.06-.92-1.87 0-3.28.37-4.23 1.12-.95.75-1.43 1.86-1.43 3.32h-3.81v-.18c0-2.42.85-4.34 2.55-5.74 1.71-1.4 4.05-2.11 7.04-2.11 3.22 0 5.58.6 7.1 1.81 1.52 1.2 2.28 3.08 2.28 5.64v12.02c0 1.03.11 1.7.34 2 .22.3.63.45 1.21.45.12 0 .27-.01.44-.03.17-.02.38-.06.62-.1v3.12c-.49.14-.92.23-1.29.28-.36.05-.71.08-1.04.08-1.35 0-2.35-.29-3.03-.87-.67-.58-1.01-1.47-1.01-2.65v-.14zm-.38-9.02c-1.08.58-2.92 1.04-5.54 1.37-.92.12-1.62.22-2.08.29-1.47.24-2.52.67-3.16 1.3-.64.63-.97 1.54-.97 2.74 0 1.2.37 2.12 1.12 2.76.75.64 1.82.96 3.21.96 2.17 0 3.95-.55 5.34-1.64 1.39-1.09 2.09-2.49 2.09-4.19v-3.59z"/><path id="XMLID_50_" class="st0" d="M725.69 369.84v-24.02h3.9v4.31c.64-1.62 1.51-2.82 2.61-3.62 1.1-.8 2.45-1.2 4.05-1.2.3 0 .52 0 .65.01.14.01.27.03.4.06v4.26c-.1-.02-.22-.02-.36-.03-.13-.01-.33-.01-.6-.01-2.16 0-3.79.59-4.92 1.76s-1.7 2.88-1.7 5.12v13.37h-4.03z"/><path id="XMLID_47_" class="st0" d="M757.12 362.07h3.99c-.43 2.65-1.59 4.73-3.45 6.26-1.87 1.53-4.22 2.29-7.07 2.29-3.33 0-5.96-1.12-7.9-3.36-1.93-2.24-2.89-5.3-2.89-9.17 0-4.1.96-7.3 2.87-9.6 1.91-2.3 4.55-3.45 7.91-3.45 3.46 0 6.13 1.06 8.02 3.19 1.89 2.12 2.84 5.12 2.84 8.99 0 .49 0 .86-.01 1.1-.01.24-.03.47-.06.7h-17.34c.05 2.53.68 4.48 1.89 5.86s2.89 2.08 5.05 2.08c1.64 0 3-.42 4.07-1.27 1.07-.86 1.76-2.06 2.08-3.62zm-13.1-6.43h13.19c-.02-2.24-.59-3.97-1.71-5.19s-2.71-1.83-4.77-1.83c-1.99 0-3.55.6-4.7 1.79-1.15 1.2-1.82 2.94-2.01 5.23z"/><path id="XMLID_45_" class="st0" d="M764.43 362.03h3.88c.15 1.63.74 2.86 1.76 3.7 1.03.84 2.48 1.25 4.36 1.25 1.73 0 3.1-.34 4.11-1.02 1-.68 1.5-1.61 1.5-2.79 0-.88-.25-1.56-.75-2.03-.5-.47-1.47-.88-2.93-1.22l-4.51-1.17c-2.54-.61-4.31-1.42-5.3-2.43-.99-1.01-1.49-2.45-1.49-4.32 0-2.12.8-3.81 2.41-5.06 1.61-1.25 3.81-1.87 6.61-1.87 2.85 0 5.13.67 6.82 2 1.69 1.33 2.54 3.12 2.54 5.36v.09h-3.93c-.09-1.27-.61-2.25-1.56-2.95-.95-.7-2.24-1.04-3.87-1.04s-2.87.29-3.71.85c-.84.57-1.27 1.4-1.27 2.49 0 .78.27 1.39.79 1.83.53.44 1.52.83 2.97 1.16l3.9.92c2.78.66 4.69 1.5 5.74 2.52 1.05 1.02 1.57 2.49 1.57 4.38 0 2.5-.88 4.44-2.63 5.82-1.76 1.38-4.22 2.07-7.37 2.07-3.08 0-5.45-.73-7.1-2.2-1.65-1.46-2.5-3.57-2.54-6.34z"/></g></g></svg>